<svg width="12" height="12" viewBox="0 0 12 12" fill="none" xmlns="http://www.w3.org/2000/svg">
<path d="M7.00001 1.94497L9.66667 4.61163M0.666672 10.945H3.33334L10.3333 3.94496C10.5084 3.76987 10.6473 3.562 10.7421 3.33323C10.8369 3.10445 10.8856 2.85925 10.8856 2.61163C10.8856 2.36401 10.8369 2.11881 10.7421 1.89004C10.6473 1.66126 10.5084 1.45339 10.3333 1.2783C10.1582 1.1032 9.95037 0.964309 9.7216 0.869548C9.49283 0.774786 9.24763 0.726013 9.00001 0.726013C8.75238 0.726013 8.50718 0.774786 8.27841 0.869548C8.04964 0.964309 7.84177 1.1032 7.66667 1.2783L0.666672 8.2783V10.945Z" stroke="#734A00" stroke-width="1.25" stroke-linecap="round" stroke-linejoin="round"/>
</svg>
