<svg width="16" height="16" viewBox="0 0 16 16" fill="none" xmlns="http://www.w3.org/2000/svg">
<path d="M13.25 4.18C13.4791 4.3103 13.6694 4.49931 13.8012 4.72757C13.933 4.95582 14.0016 5.21508 14 5.47866V10.3347C14 10.874 13.7047 11.3713 13.228 11.6333L8.728 14.48C8.5049 14.6025 8.25451 14.6667 8 14.6667C7.74549 14.6667 7.4951 14.6025 7.272 14.48L2.772 11.6333C2.53878 11.5059 2.34408 11.3181 2.20827 11.0896C2.07247 10.8612 2.00053 10.6004 2 10.3347V5.478C2 4.93866 2.29533 4.442 2.772 4.18L7.272 1.52666C7.50169 1.40002 7.75971 1.3336 8.022 1.3336C8.28429 1.3336 8.54231 1.40002 8.772 1.52666L13.272 4.18H13.25Z" stroke="#131313" stroke-width="1.25" stroke-linecap="round" stroke-linejoin="round"/>
<path d="M6 8.00001C6 8.53044 6.21071 9.03915 6.58579 9.41422C6.96086 9.78929 7.46957 10 8 10C8.53043 10 9.03914 9.78929 9.41421 9.41422C9.78929 9.03915 10 8.53044 10 8.00001C10 7.46957 9.78929 6.96086 9.41421 6.58579C9.03914 6.21072 8.53043 6.00001 8 6.00001C7.46957 6.00001 6.96086 6.21072 6.58579 6.58579C6.21071 6.96086 6 7.46957 6 8.00001Z" stroke="#131313" stroke-width="1.25" stroke-linecap="round" stroke-linejoin="round"/>
</svg>
