<svg width="4" height="13" viewBox="0 0 4 13" fill="none" xmlns="http://www.w3.org/2000/svg">
<path d="M1.33334 6.61163C1.33334 6.78844 1.40358 6.95801 1.52861 7.08304C1.65363 7.20806 1.8232 7.2783 2.00001 7.2783C2.17682 7.2783 2.34639 7.20806 2.47141 7.08304C2.59644 6.95801 2.66668 6.78844 2.66668 6.61163C2.66668 6.43482 2.59644 6.26525 2.47141 6.14023C2.34639 6.0152 2.17682 5.94496 2.00001 5.94496C1.8232 5.94496 1.65363 6.0152 1.52861 6.14023C1.40358 6.26525 1.33334 6.43482 1.33334 6.61163Z" fill="#131313"/>
<path d="M1.33334 11.2783C1.33334 11.4551 1.40358 11.6247 1.52861 11.7497C1.65363 11.8747 1.8232 11.945 2.00001 11.945C2.17682 11.945 2.34639 11.8747 2.47141 11.7497C2.59644 11.6247 2.66668 11.4551 2.66668 11.2783C2.66668 11.1015 2.59644 10.9319 2.47141 10.8069C2.34639 10.6819 2.17682 10.6116 2.00001 10.6116C1.8232 10.6116 1.65363 10.6819 1.52861 10.8069C1.40358 10.9319 1.33334 11.1015 1.33334 11.2783Z" fill="#131313"/>
<path d="M1.33334 1.94496C1.33334 2.12178 1.40358 2.29134 1.52861 2.41637C1.65363 2.54139 1.8232 2.61163 2.00001 2.61163C2.17682 2.61163 2.34639 2.54139 2.47141 2.41637C2.59644 2.29134 2.66668 2.12178 2.66668 1.94496C2.66668 1.76815 2.59644 1.59858 2.47141 1.47356C2.34639 1.34854 2.17682 1.2783 2.00001 1.2783C1.8232 1.2783 1.65363 1.34854 1.52861 1.47356C1.40358 1.59858 1.33334 1.76815 1.33334 1.94496Z" fill="#131313"/>
<path d="M1.33334 6.61163C1.33334 6.78844 1.40358 6.95801 1.52861 7.08304C1.65363 7.20806 1.8232 7.2783 2.00001 7.2783C2.17682 7.2783 2.34639 7.20806 2.47141 7.08304C2.59644 6.95801 2.66668 6.78844 2.66668 6.61163C2.66668 6.43482 2.59644 6.26525 2.47141 6.14023C2.34639 6.0152 2.17682 5.94496 2.00001 5.94496C1.8232 5.94496 1.65363 6.0152 1.52861 6.14023C1.40358 6.26525 1.33334 6.43482 1.33334 6.61163Z" stroke="#734A00" stroke-width="1.25" stroke-linecap="round" stroke-linejoin="round"/>
<path d="M1.33334 11.2783C1.33334 11.4551 1.40358 11.6247 1.52861 11.7497C1.65363 11.8747 1.8232 11.945 2.00001 11.945C2.17682 11.945 2.34639 11.8747 2.47141 11.7497C2.59644 11.6247 2.66668 11.4551 2.66668 11.2783C2.66668 11.1015 2.59644 10.9319 2.47141 10.8069C2.34639 10.6819 2.17682 10.6116 2.00001 10.6116C1.8232 10.6116 1.65363 10.6819 1.52861 10.8069C1.40358 10.9319 1.33334 11.1015 1.33334 11.2783Z" stroke="#734A00" stroke-width="1.25" stroke-linecap="round" stroke-linejoin="round"/>
<path d="M1.33334 1.94496C1.33334 2.12178 1.40358 2.29134 1.52861 2.41637C1.65363 2.54139 1.8232 2.61163 2.00001 2.61163C2.17682 2.61163 2.34639 2.54139 2.47141 2.41637C2.59644 2.29134 2.66668 2.12178 2.66668 1.94496C2.66668 1.76815 2.59644 1.59858 2.47141 1.47356C2.34639 1.34854 2.17682 1.2783 2.00001 1.2783C1.8232 1.2783 1.65363 1.34854 1.52861 1.47356C1.40358 1.59858 1.33334 1.76815 1.33334 1.94496Z" stroke="#734A00" stroke-width="1.25" stroke-linecap="round" stroke-linejoin="round"/>
</svg>
