<svg width="149" height="24" viewBox="0 0 149 24" fill="none" xmlns="http://www.w3.org/2000/svg">
<g clip-path="url(#clip0_1_45)">
<ellipse cx="10.8" cy="12" rx="10.4" ry="10.4959" fill="#FFA500"/>
<ellipse opacity="0.6" cx="7.06439" cy="6.10078" rx="7.06439" ry="6.10078" transform="matrix(0.834795 -0.550561 0.54352 0.839396 -2.62708 6.4007)" fill="url(#paint0_radial_1_45)"/>
<path d="M15.3211 2.71294C13.4944 4.02251 12.8305 6.0479 13.5 7.00003C14.1695 7.95216 15.6733 9.3096 17.5 8.00003C18.9715 6.94502 17.9545 5.69525 20.7792 1.61629C20.7792 1.61629 20.5319 1.58594 20.4095 1.57046C19.0045 1.39275 17.0014 1.50827 15.3211 2.71294Z" fill="#008000"/>
</g>
<path d="M130.495 19V7.50063H132.725L132.944 9.03096H133.097C133.345 8.68117 133.629 8.3751 133.95 8.11276C134.27 7.83584 134.635 7.62451 135.043 7.47876C135.465 7.31844 135.924 7.23828 136.42 7.23828C137.09 7.23828 137.688 7.37674 138.213 7.65366C138.737 7.93058 139.145 8.38968 139.437 9.03096H139.59C139.838 8.68117 140.129 8.3751 140.464 8.11276C140.8 7.83584 141.186 7.62451 141.623 7.47876C142.06 7.31844 142.534 7.23828 143.044 7.23828C143.729 7.23828 144.334 7.36217 144.859 7.60993C145.383 7.8577 145.799 8.26579 146.105 8.8342C146.411 9.40261 146.564 10.1605 146.564 11.1078V19H143.897V11.6544C143.897 11.2609 143.853 10.933 143.766 10.6706C143.678 10.3937 143.554 10.1824 143.394 10.0366C143.248 9.87629 143.059 9.75969 142.826 9.68682C142.607 9.61395 142.366 9.57751 142.104 9.57751C141.681 9.57751 141.303 9.69411 140.967 9.9273C140.632 10.1605 140.362 10.4811 140.158 10.8892C139.969 11.2973 139.874 11.771 139.874 12.3103V19H137.207V11.6544C137.207 11.2609 137.163 10.933 137.076 10.6706C136.988 10.3937 136.865 10.1824 136.704 10.0366C136.558 9.87629 136.369 9.75969 136.136 9.68682C135.917 9.61395 135.677 9.57751 135.414 9.57751C134.992 9.57751 134.605 9.69411 134.256 9.9273C133.92 10.1605 133.651 10.4811 133.447 10.8892C133.257 11.2973 133.163 11.771 133.163 12.3103V19H130.495Z" fill="#131313"/>
<path d="M123.258 19V7.50063H125.488L125.706 9.31517H125.86C126.005 8.9508 126.18 8.61558 126.384 8.30952C126.603 7.98888 126.88 7.73382 127.215 7.54435C127.55 7.3403 127.958 7.23828 128.439 7.23828C128.672 7.23828 128.884 7.26014 129.073 7.30387C129.277 7.34759 129.43 7.39132 129.532 7.43504V9.94916H128.723C128.272 9.94916 127.871 10.0147 127.521 10.1459C127.171 10.2625 126.872 10.452 126.625 10.7143C126.391 10.9767 126.217 11.3046 126.1 11.6981C125.983 12.0916 125.925 12.5507 125.925 13.0754V19H123.258Z" fill="#131313"/>
<path d="M114.745 19.2624C114.424 19.2624 114.052 19.2186 113.63 19.1312C113.222 19.0583 112.821 18.9126 112.427 18.6939C112.048 18.4753 111.735 18.1547 111.487 17.732C111.239 17.2948 111.115 16.7264 111.115 16.0268C111.115 15.2398 111.29 14.5912 111.64 14.0811C111.99 13.5564 112.478 13.1483 113.105 12.8568C113.746 12.5507 114.504 12.3394 115.379 12.2228C116.268 12.0916 117.237 12.026 118.286 12.026V11.086C118.286 10.7508 118.235 10.452 118.133 10.1896C118.031 9.9273 117.842 9.72326 117.565 9.57751C117.302 9.41719 116.902 9.33703 116.362 9.33703C115.823 9.33703 115.4 9.40261 115.094 9.53379C114.788 9.66496 114.577 9.82528 114.46 10.0147C114.344 10.2042 114.285 10.401 114.285 10.605V10.9111H111.706C111.691 10.8382 111.684 10.7653 111.684 10.6925C111.684 10.6196 111.684 10.5321 111.684 10.4301C111.684 9.77427 111.881 9.20586 112.274 8.72489C112.668 8.24393 113.214 7.87957 113.914 7.6318C114.613 7.36945 115.422 7.23828 116.34 7.23828C117.39 7.23828 118.25 7.38403 118.92 7.67552C119.605 7.96701 120.115 8.38239 120.451 8.92165C120.786 9.46091 120.953 10.1168 120.953 10.8892V16.311C120.953 16.5879 121.034 16.7847 121.194 16.9013C121.354 17.0179 121.529 17.0762 121.719 17.0762H122.418V18.9126C122.272 18.9709 122.061 19.0364 121.784 19.1093C121.507 19.1968 121.165 19.2405 120.757 19.2405C120.378 19.2405 120.035 19.1749 119.729 19.0437C119.438 18.9271 119.19 18.7522 118.986 18.519C118.782 18.2859 118.636 18.0089 118.549 17.6883H118.417C118.17 17.9944 117.871 18.2713 117.521 18.519C117.186 18.7522 116.785 18.9344 116.319 19.0656C115.867 19.1968 115.342 19.2624 114.745 19.2624ZM115.553 17.0762C115.991 17.0762 116.377 17.0106 116.712 16.8794C117.062 16.7482 117.346 16.566 117.565 16.3329C117.798 16.0997 117.973 15.8155 118.089 15.4802C118.221 15.145 118.286 14.7807 118.286 14.3871V13.8625C117.485 13.8625 116.741 13.9135 116.056 14.0155C115.386 14.1175 114.847 14.307 114.438 14.5839C114.045 14.8608 113.848 15.2543 113.848 15.7644C113.848 16.0268 113.907 16.26 114.023 16.464C114.154 16.6535 114.344 16.8065 114.592 16.9231C114.854 17.0251 115.175 17.0762 115.553 17.0762Z" fill="#131313"/>
<path d="M100.057 19V4.00269H110.835V6.42936H102.899V10.452H110.047V12.8786H102.899V19H100.057Z" fill="#131313"/>
<path d="M93.1854 19.2624C91.9612 19.2624 90.941 19.051 90.1248 18.6284C89.3086 18.1911 88.6965 17.528 88.2884 16.6389C87.8803 15.7499 87.6762 14.6203 87.6762 13.2503C87.6762 11.8657 87.8803 10.7362 88.2884 9.86171C88.6965 8.97266 89.3086 8.3168 90.1248 7.89414C90.941 7.4569 91.9612 7.23828 93.1854 7.23828C94.2931 7.23828 95.2186 7.44961 95.9619 7.87228C96.7198 8.28037 97.2882 8.91436 97.6672 9.77427C98.0461 10.6342 98.2356 11.7491 98.2356 13.1191V13.9062H90.409C90.4381 14.6203 90.5474 15.2252 90.7369 15.7207C90.9264 16.2017 91.2179 16.566 91.6114 16.8138C92.0195 17.047 92.5515 17.1636 93.2073 17.1636C93.5425 17.1636 93.8559 17.1199 94.1474 17.0324C94.4389 16.945 94.6939 16.8138 94.9125 16.6389C95.1312 16.4494 95.2988 16.2163 95.4154 15.9393C95.5465 15.6624 95.6121 15.3418 95.6121 14.9774H98.2356C98.2356 15.7061 98.1044 16.3401 97.842 16.8794C97.5943 17.4187 97.2372 17.8632 96.7708 18.213C96.319 18.5628 95.787 18.8251 95.1749 19C94.5628 19.1749 93.8996 19.2624 93.1854 19.2624ZM90.4527 12.026H95.4591C95.4591 11.5451 95.4008 11.137 95.2842 10.8018C95.1822 10.4666 95.0291 10.1896 94.8251 9.97102C94.6356 9.75241 94.4024 9.59937 94.1255 9.51192C93.8486 9.4099 93.5352 9.35889 93.1854 9.35889C92.617 9.35889 92.1361 9.45363 91.7426 9.6431C91.3636 9.83257 91.0721 10.1241 90.8681 10.5176C90.664 10.9111 90.5256 11.4139 90.4527 12.026Z" fill="#131313"/>
<path d="M77.9133 22.9789C77.4032 22.9789 76.9223 22.8769 76.4704 22.6728C76.0186 22.4688 75.6543 22.1627 75.3773 21.7546C75.1004 21.3611 74.962 20.8728 74.962 20.2899C74.962 19.6486 75.1442 19.1458 75.5085 18.7814C75.8875 18.4024 76.3028 18.1182 76.7547 17.9288C76.4194 17.7539 76.1425 17.5207 75.9239 17.2292C75.7199 16.9377 75.6178 16.5879 75.6178 16.1798C75.6178 15.626 75.8219 15.1887 76.23 14.8681C76.6381 14.5329 77.1044 14.3143 77.6291 14.2122C77.0899 13.877 76.6745 13.4471 76.383 12.9224C76.1061 12.3977 75.9676 11.8001 75.9676 11.1297C75.9676 10.3281 76.1571 9.64309 76.536 9.07468C76.9295 8.4917 77.498 8.03988 78.2413 7.71924C78.9846 7.3986 79.8809 7.23828 80.9303 7.23828C81.353 7.23828 81.761 7.26743 82.1546 7.32573C82.5481 7.38403 82.9051 7.47147 83.2258 7.58807C83.7359 7.282 84.0857 6.9395 84.2752 6.56056C84.4646 6.16704 84.5667 5.8464 84.5812 5.59863H87.1828C87.1828 6.10875 87.0808 6.56056 86.8767 6.95407C86.6873 7.34759 86.4176 7.67552 86.0678 7.93786C85.7181 8.18563 85.2954 8.36781 84.7999 8.48441C85.1642 8.80505 85.4411 9.19128 85.6306 9.64309C85.8201 10.0949 85.9148 10.5904 85.9148 11.1297C85.9148 11.9313 85.7253 12.6236 85.3464 13.2066C84.982 13.7896 84.4355 14.2414 83.7068 14.562C82.9926 14.8827 82.1108 15.043 81.0615 15.043H79.2906C78.9846 15.043 78.7441 15.1086 78.5692 15.2398C78.4089 15.3709 78.3287 15.5531 78.3287 15.7863C78.3287 15.9758 78.4016 16.1434 78.5473 16.2891C78.7077 16.4349 78.9263 16.5077 79.2032 16.5077H84.2314C85.0913 16.5077 85.7982 16.7919 86.352 17.3604C86.9205 17.9142 87.2047 18.6284 87.2047 19.5028C87.2047 20.1587 87.0298 20.749 86.68 21.2736C86.3448 21.7983 85.8711 22.2137 85.2589 22.5198C84.6468 22.8258 83.9327 22.9789 83.1165 22.9789H77.9133ZM78.8753 21.055H83.0946C83.3715 21.055 83.612 21.004 83.8161 20.902C84.0347 20.8145 84.2023 20.6834 84.3189 20.5085C84.4501 20.3336 84.5156 20.1368 84.5156 19.9182C84.5156 19.5393 84.3918 19.2551 84.144 19.0656C83.9108 18.8761 83.6193 18.7814 83.2695 18.7814H78.8753C78.5255 18.7814 78.234 18.8834 78.0008 19.0875C77.7676 19.3061 77.651 19.583 77.651 19.9182C77.651 20.2534 77.7603 20.5231 77.9789 20.7271C78.2121 20.9457 78.5109 21.055 78.8753 21.055ZM80.9521 13.1629C81.7246 13.1629 82.3003 12.988 82.6792 12.6382C83.0728 12.2738 83.2695 11.771 83.2695 11.1297C83.2695 10.4884 83.0728 9.99288 82.6792 9.64309C82.3003 9.2933 81.7246 9.11841 80.9521 9.11841C80.1797 9.11841 79.5967 9.2933 79.2032 9.64309C78.8242 9.99288 78.6348 10.4884 78.6348 11.1297C78.6348 11.5524 78.7149 11.9167 78.8753 12.2228C79.0502 12.5289 79.3052 12.7621 79.6404 12.9224C79.9902 13.0827 80.4275 13.1629 80.9521 13.1629Z" fill="#131313"/>
<path d="M63.9275 19V7.50063H66.1574L66.376 9.03096H66.5291C66.7914 8.68117 67.0975 8.3751 67.4473 8.11276C67.8116 7.83584 68.2197 7.62451 68.6715 7.47876C69.1379 7.31844 69.648 7.23828 70.2019 7.23828C70.9306 7.23828 71.5719 7.36945 72.1257 7.6318C72.6941 7.89414 73.1387 8.3168 73.4593 8.89979C73.7799 9.48277 73.9403 10.2625 73.9403 11.239V19H71.2512V11.72C71.2512 11.3119 71.2002 10.9767 71.0982 10.7143C71.0108 10.4374 70.8723 10.2188 70.6828 10.0585C70.5079 9.88358 70.2893 9.75969 70.027 9.68682C69.7646 9.61395 69.4731 9.57751 69.1525 9.57751C68.6715 9.57751 68.2343 9.69411 67.8408 9.9273C67.4618 10.1605 67.1558 10.4811 66.9226 10.8892C66.704 11.2973 66.5946 11.771 66.5946 12.3103V19H63.9275Z" fill="#131313"/>
<path d="M55.4141 19.2624C55.0935 19.2624 54.7219 19.2186 54.2992 19.1312C53.8911 19.0583 53.4903 18.9126 53.0968 18.6939C52.7178 18.4753 52.4045 18.1547 52.1567 17.732C51.9089 17.2948 51.7851 16.7264 51.7851 16.0268C51.7851 15.2398 51.96 14.5912 52.3097 14.0811C52.6595 13.5564 53.1478 13.1483 53.7745 12.8568C54.4158 12.5507 55.1737 12.3394 56.0481 12.2228C56.9372 12.0916 57.9064 12.026 58.9558 12.026V11.086C58.9558 10.7508 58.9048 10.452 58.8027 10.1896C58.7007 9.9273 58.5113 9.72326 58.2343 9.57751C57.972 9.41719 57.5712 9.33703 57.0319 9.33703C56.4927 9.33703 56.07 9.40261 55.7639 9.53379C55.4579 9.66496 55.2465 9.82528 55.1299 10.0147C55.0133 10.2042 54.955 10.401 54.955 10.605V10.9111H52.3753C52.3608 10.8382 52.3535 10.7653 52.3535 10.6925C52.3535 10.6196 52.3535 10.5321 52.3535 10.4301C52.3535 9.77427 52.5502 9.20586 52.9437 8.72489C53.3373 8.24393 53.8838 7.87957 54.5834 7.6318C55.283 7.36945 56.0919 7.23828 57.0101 7.23828C58.0594 7.23828 58.9193 7.38403 59.5898 7.67552C60.2748 7.96701 60.7849 8.38239 61.1201 8.92165C61.4553 9.46091 61.6229 10.1168 61.6229 10.8892V16.311C61.6229 16.5879 61.7031 16.7847 61.8634 16.9013C62.0237 17.0179 62.1986 17.0762 62.3881 17.0762H63.0877V18.9126C62.9419 18.9709 62.7306 19.0364 62.4537 19.1093C62.1768 19.1968 61.8343 19.2405 61.4262 19.2405C61.0472 19.2405 60.7047 19.1749 60.3987 19.0437C60.1072 18.9271 59.8594 18.7522 59.6554 18.519C59.4513 18.2859 59.3056 18.0089 59.2181 17.6883H59.087C58.8392 17.9944 58.5404 18.2713 58.1906 18.519C57.8554 18.7522 57.4546 18.9344 56.9882 19.0656C56.5364 19.1968 56.0117 19.2624 55.4141 19.2624ZM56.223 17.0762C56.6603 17.0762 57.0465 17.0106 57.3817 16.8794C57.7315 16.7482 58.0157 16.566 58.2343 16.3329C58.4675 16.0997 58.6424 15.8155 58.759 15.4802C58.8902 15.145 58.9558 14.7807 58.9558 14.3871V13.8625C58.1542 13.8625 57.4109 13.9135 56.7259 14.0155C56.0554 14.1175 55.5162 14.307 55.1081 14.5839C54.7146 14.8608 54.5178 15.2543 54.5178 15.7644C54.5178 16.0268 54.5761 16.26 54.6927 16.464C54.8239 16.6535 55.0133 16.8065 55.2611 16.9231C55.5235 17.0251 55.8441 17.0762 56.223 17.0762Z" fill="#131313"/>
<path d="M45.4388 19V7.50063H47.6687L47.8873 9.31517H48.0404C48.1861 8.9508 48.361 8.61558 48.565 8.30952C48.7837 7.98888 49.0606 7.73382 49.3958 7.54435C49.731 7.3403 50.1391 7.23828 50.6201 7.23828C50.8533 7.23828 51.0646 7.26014 51.2541 7.30387C51.4581 7.34759 51.6111 7.39132 51.7132 7.43504V9.94916H50.9043C50.4525 9.94916 50.0517 10.0147 49.7019 10.1459C49.3521 10.2625 49.0533 10.452 48.8055 10.7143C48.5723 10.9767 48.3974 11.3046 48.2808 11.6981C48.1642 12.0916 48.1059 12.5507 48.1059 13.0754V19H45.4388Z" fill="#131313"/>
<path d="M36.148 19.2623C34.5885 19.2623 33.2403 18.9854 32.1035 18.4316C30.9667 17.8632 30.0922 17.0033 29.4801 15.8519C28.8825 14.7005 28.5837 13.2503 28.5837 11.5013C28.5837 9.73782 28.8825 8.28764 29.4801 7.15082C30.0922 5.99942 30.9667 5.14681 32.1035 4.59297C33.2403 4.02456 34.5885 3.74036 36.148 3.74036C37.722 3.74036 39.0702 4.02456 40.1924 4.59297C41.3293 5.14681 42.1964 5.99942 42.794 7.15082C43.4061 8.28764 43.7122 9.73782 43.7122 11.5013C43.7122 13.2503 43.4061 14.7005 42.794 15.8519C42.1964 17.0033 41.3293 17.8632 40.1924 18.4316C39.0702 18.9854 37.722 19.2623 36.148 19.2623ZM36.148 16.8575C36.9059 16.8575 37.569 16.7482 38.1374 16.5296C38.7204 16.311 39.2086 15.9903 39.6022 15.5677C39.9957 15.1304 40.2945 14.5985 40.4985 13.9717C40.7025 13.3305 40.8046 12.5944 40.8046 11.7637V11.2827C40.8046 10.4374 40.7025 9.69409 40.4985 9.05281C40.2945 8.41153 39.9957 7.87955 39.6022 7.45689C39.2086 7.01965 38.7204 6.69172 38.1374 6.4731C37.569 6.25448 36.9059 6.14517 36.148 6.14517C35.3901 6.14517 34.7197 6.25448 34.1367 6.4731C33.5683 6.69172 33.0873 7.01965 32.6938 7.45689C32.3003 7.87955 32.0015 8.41153 31.7974 9.05281C31.608 9.69409 31.5132 10.4374 31.5132 11.2827V11.7637C31.5132 12.5944 31.608 13.3305 31.7974 13.9717C32.0015 14.5985 32.3003 15.1304 32.6938 15.5677C33.0873 15.9903 33.5683 16.311 34.1367 16.5296C34.7197 16.7482 35.3901 16.8575 36.148 16.8575Z" fill="#131313"/>
<defs>
<radialGradient id="paint0_radial_1_45" cx="0" cy="0" r="1" gradientUnits="userSpaceOnUse" gradientTransform="translate(7.06439 6.10078) rotate(90) scale(6.10078 7.06439)">
<stop stop-color="white"/>
<stop offset="1" stop-color="white" stop-opacity="0"/>
</radialGradient>
<clipPath id="clip0_1_45">
<rect width="20.8" height="20.9919" fill="white" transform="translate(0.400024 1.50406)"/>
</clipPath>
</defs>
</svg>
